PathFileType	4	(X/Y/Z)	P:\Projects\LMB_grand_challenge_database\project_only\opensim\experimental_data\SixthCompetition/DM_ngait_og1_new.trc
DataRate	CameraRate	NumFrames	NumMarkers	Units	OrigDataRate	OrigDataStartFrame	OrigNumFrames
120	120	4	68	mm	120	0	381
Frame#	Time	Sternum			Neck			R_Shoulder			L_Shoulder			Xiphoid			Thoracic			R_Asis			L_Asis			R_Psis			L_Psis			Lumbar			R_Elbow			R_ElbowMedial			R_ShoulderAnterior			R_ShoulderPosterior			R_Wrist			R_Radius			R_Ulna			L_Elbow			L_ElbowMedial			L_ShoulderAnterior			L_ShoulderPosterior			L_Wrist			L_Ulna			L_Radius			L_Thigh_Superior			L_Thigh_Inferior			L_Thigh_Lateral			L_Knee_Lateral			L_Knee_Medial			L_Patella			L_Shank_Superior			L_Shank_Inferior			L_Shank_Lateral			L_Ankle_Lateral			L_Ankle_Medial			R_Thigh_Superior			R_Thigh_Inferior			R_Thigh_Lateral			R_Knee_Lateral			R_Knee_Medial			R_Patella			R_Shank_Superior			R_Shank_Inferior			R_Shank_Lateral			R_Ankle_Lateral			RankleMedial			R_Heel			R_Toe			R_Midfoot_Medial			R_Midfoot_Lateral			R_Hindfoot			R_Midfoot_Superior			R_ToeMedial			R_ToeLateral			L_Heel			L_Toe			L_Midfoot_Medial			L_Midfoot_Lateral			L_Hindfoot			L_Midfoot_Superior			L_ToeMedial			L_ToeLateral			Oglobal			Sacral			Xglobal			Yglobal			Zglobal			
		X1	Y1	Z1	X2	Y2	Z2	X3	Y3	Z3	X4	Y4	Z4	X5	Y5	Z5	X6	Y6	Z6	X7	Y7	Z7	X8	Y8	Z8	X9	Y9	Z9	X10	Y10	Z10	X11	Y11	Z11	X12	Y12	Z12	X13	Y13	Z13	X14	Y14	Z14	X15	Y15	Z15	X16	Y16	Z16	X17	Y17	Z17	X18	Y18	Z18	X19	Y19	Z19	X20	Y20	Z20	X21	Y21	Z21	X22	Y22	Z22	X23	Y23	Z23	X24	Y24	Z24	X25	Y25	Z25	X26	Y26	Z26	X27	Y27	Z27	X28	Y28	Z28	X29	Y29	Z29	X30	Y30	Z30	X31	Y31	Z31	X32	Y32	Z32	X33	Y33	Z33	X34	Y34	Z34	X35	Y35	Z35	X36	Y36	Z36	X37	Y37	Z37	X38	Y38	Z38	X39	Y39	Z39	X40	Y40	Z40	X41	Y41	Z41	X42	Y42	Z42	X43	Y43	Z43	X44	Y44	Z44	X45	Y45	Z45	X46	Y46	Z46	X47	Y47	Z47	X48	Y48	Z48	X49	Y49	Z49	X50	Y50	Z50	X51	Y51	Z51	X52	Y52	Z52	X53	Y53	Z53	X54	Y54	Z54	X55	Y55	Z55	X56	Y56	Z56	X57	Y57	Z57	X58	Y58	Z58	X59	Y59	Z59	X60	Y60	Z60	X61	Y61	Z61	X62	Y62	Z62	X63	Y63	Z63	X64	Y64	Z64	X65	Y65	Z65	X66	Y66	Z66	X67	Y67	Z67	X68	Y68	Z68	

1	0.75	-1446.17	1356.48	134.832	-1607.82	1434.69	162.168	-1485.58	1385.78	314.021	-1565.63	1395.16	-25.296	-1423.8	1190.18	141.035	-1694.4	1248.24	166.989	-1509.24	958.424	297.283	-1501.61	958.97	17.5962	-1707.92	1001.45	185.2	-1705.94	998.95	106.378	-1705.39	1050	146.3	-1519.98	1077.8	425.799	-0	0	0	-0	0	0	-0	0	0	-1449.16	805.692	408.41	-1450.15	817.037	364.658	-1495.19	808.101	421.097	-1662.57	1066.92	-101.576	-0	0	0	-0	0	0	-0	0	0	-1643.99	797.95	-107.697	-1688.05	814.37	-111.796	-1631.34	813.67	-64.8492	-1520.32	799.724	-14.9927	-1409.69	608.601	43.8313	-0	0	0	-0	0	0	-0	0	0	-1360.1	524.033	102.38	-1413.93	448.262	28.8709	-1443.86	178.947	16.5132	-1404.56	301.792	95.5883	-0	0	0	-0	0	0	-1613.28	775.485	318.045	-1651.89	564.26	287.554	-1556.38	675.176	304.219	-0	0	0	-0	0	0	-1596.34	444.284	230.68	-1770.24	421.415	305.045	-1897.18	257.499	304.35	-1773.83	304.541	230.911	-0	0	0	-0	0	0	-2042.81	203.229	256.398	-1819.83	25.6864	265.315	-1893.03	34.2814	213.542	-1906.59	42.0833	329.763	-1991.08	111.779	313.77	-1881.51	139.969	266.376	-1853.14	28.0585	222.657	-1861.24	31.0255	314.789	-1525.1	62.2361	70.1675	-1225.87	57.0847	48.8849	-1260.13	37.1392	94.322	-1265.02	39.5745	-0.237315	-0	0	0	-1360.52	120.8	56.1798	-1260.13	37.1392	94.322	-1265.02	39.5745	-0.237315	-0	0	0	-1706.93	1000.2	145.789	-200	0	0	-0	0	200	-0	200	0	
2	0.758333	-1437.82	1357.62	133.539	-1599.66	1435.52	160.331	-1477.76	1387.3	312.565	-1556.77	1395.84	-26.9231	-1415.29	1191.29	140.116	-1685.91	1248.85	165.534	-1500.67	958.869	296.286	-1492.56	960.283	16.4345	-1698.62	1001.86	182.429	-1697.41	999.427	105.397	-1696.76	1050.47	145.159	-1513.74	1079.34	423.953	-0	0	0	-0	0	0	-0	0	0	-1446.01	806.794	407.023	-1446.78	817.794	363.227	-1492.06	809.172	419.058	-1652.41	1067.36	-103.401	-0	0	0	-0	0	0	-0	0	0	-1632	798.509	-109.589	-1677.13	815.8579999999999	-112.092	-1618.89	814.17	-66.9122	-1512.62	799.222	-15.9555	-1403.81	607.633	41.6364	-0	0	0	-0	0	0	-0	0	0	-1353.31	522.9349999999999	101.485	-1409.42	447.434	27.7077	-1442.79	178.613	16.6921	-1400.87	301.032	95.09220000000001	-0	0	0	-0	0	0	-1602.68	774.817	316.261	-1636.79	562.925	285.989	-1543.49	675.391	303.042	-0	0	0	-0	0	0	-1580.21	443.455	229.854	-1755.17	423.34	303.415	-1886.26	262.686	302.282	-1760.25	306.367	230.04	-0	0	0	-0	0	0	-2030.95	214.764	254.805	-1817.89	24.7651	265.464	-1889.95	38.1695	212.972	-1902.99	47.4114	329.148	-1983.72	121.508	312.467	-1872.72	143.337	265.121	-1851.35	28.8305	222.583	-1859.47	34.0215	314.055	-1525.02	62.1986	70.1177	-1225.66	56.6362	49.0253	-1259.97	36.7591	94.2153	-1264.75	39.2557	-0.15941	-0	0	0	-1361.1	119.832	55.9089	-1259.97	36.7591	94.2153	-1264.75	39.2557	-0.15941	-0	0	0	-1698.01	1000.64	143.913	-200	0	0	-0	0	200	-0	200	0	
3	0.766667	-1429.52	1358.79	132.41	-1591.74	1436.27	158.53	-1470.29	1388.86	311.419	-1547.88	1396.55	-28.4434	-1406.63	1192.5	139.545	-1677.55	1249.44	163.935	-1492.11	959.377	295.185	-1483.59	961.674	15.4186	-1689.96	1002.28	181.13	-1688.68	999.9059999999999	104.221	-1688.22	1050.92	144.079	-1507.8	1080.9	422.477	-0	0	0	-0	0	0	-0	0	0	-1442.69	807.888	405.584	-1442.74	818.7430000000001	361.756	-1488.61	810.0650000000001	417.041	-1642.09	1067.71	-105.177	-0	0	0	-0	0	0	-0	0	0	-1619.52	799.044	-111.208	-1664.94	816.258	-113.634	-1606.54	815.115	-68.6816	-1505.18	799.162	-17.2356	-1398.25	605.9299999999999	39.7254	-0	0	0	-0	0	0	-0	0	0	-1347.19	521.884	100.721	-1405.62	446.629	26.4757	-1441.91	178.179	16.9415	-1397.04	300.165	94.0176	-0	0	0	-0	0	0	-1592.8	774.884	315.206	-1621.56	561.842	284.487	-1530.15	675.389	301.362	-0	0	0	-0	0	0	-1563.86	442.771	228.783	-1739.95	425.506	301.524	-1874.54	268.167	300.592	-1745.7	308.589	229.292	-0	0	0	-0	0	0	-2018.15	226.747	253.177	-1815.42	23.4584	264.642	-1886.76	42.7004	212.202	-1898.89	53.4468	328.348	-1975.79	131.672	311.326	-1863.98	147.254	263.515	-1848.65	29.8919	222.259	-1856.68	36.0025	313.326	-1525.03	62.2974	70.2059	-1225.54	56.2622	49.0208	-1259.91	36.4344	94.15479999999999	-1264.61	38.9746	-0.15633	-0	0	0	-1360.13	120.233	56.5187	-1259.91	36.4344	94.15479999999999	-1264.61	38.9746	-0.15633	-0	0	0	-1689.32	1001.09	142.675	-200	0	0	-0	0	200	-0	200	0	
4	0.775	-1421.21	1359.87	131.649	-1583.96	1437.01	156.688	-1463.09	1390.34	310.314	-1538.86	1397.27	-29.9451	-1398.26	1193.59	138.442	-1669.36	1250.18	162.418	-1483.86	960.139	294.229	-1474.51	963.111	14.6366	-1681.5	1002.89	179.744	-1680.01	1000.5	102.857	-1679.76	1051.52	142.818	-1501.9	1082.34	420.928	-0	0	0	-0	0	0	-0	0	0	-1439.34	808.855	404.167	-1438.31	819.822	360.314	-1485.57	811.492	415.678	-1631.69	1068.1	-107.02	-0	0	0	-0	0	0	-0	0	0	-1606.92	799.753	-112.976	-1652.46	816.376	-115.221	-1593.72	815.732	-70.7367	-1497.48	799.444	-18.0779	-1393.34	602.817	38.3839	-0	0	0	-0	0	0	-0	0	0	-1341.35	521.0700000000001	100.071	-1402.47	445.873	25.1445	-1441.04	177.826	16.9614	-1393.48	299.794	93.48480000000001	-0	0	0	-0	0	0	-1582.43	774.873	313.513	-1606.11	560.682	282.969	-1517.96	676.1950000000001	300.945	-0	0	0	-0	0	0	-1547.31	442.308	227.649	-1724.49	427.93	299.627	-1862.26	273.922	298.908	-1730.73	311.644	229.016	-0	0	0	-0	0	0	-2004.18	238.846	251.348	-1813.16	21.7288	265.21	-1883.51	47.2155	212.205	-1893.99	60.3877	328.262	-1966.53	142.418	310.652	-1855.02	151.402	261.646	-1845.71	31.256	222.166	-1853.07	38.4841	313.641	-1524.9	62.2789	70.1609	-1225.33	55.8482	48.9914	-1259.87	36.1651	94.06440000000001	-1264.49	38.7807	-0.090375	-0	0	0	-1359.81	120.106	56.7466	-1259.87	36.1651	94.06440000000001	-1264.49	38.7807	-0.090375	-0	0	0	-1680.75	1001.69	141.301	-200	0	0	-0	0	200	-0	200	0	
